<svg xmlns="http://www.w3.org/2000/svg" data-name="Layer 1" viewBox="0 0 95 95" x="0px" y="0px" fill="#4f2485"><defs><style>.cls-1{fill-rule:evenodd;}</style></defs><title>a</title><path class="cls-1" d="M25.009,80.612A2.885,2.885,0,1,1,22.124,83.5a2.886,2.886,0,0,1,2.885-2.884Zm-20.4,4.993h13.62a7.1,7.1,0,0,0,13.567,0H90.388a2.109,2.109,0,1,0,0-4.217H31.8a7.1,7.1,0,0,0-13.567,0H4.608a2.109,2.109,0,0,0,0,4.217ZM34.719,25.091,58.169,38.63,34.719,52.169V25.091ZM31.554,57.646a2.1,2.1,0,0,0,2.113,0L63.442,40.454a2.107,2.107,0,0,0,0-3.652L33.667,19.61A2.109,2.109,0,0,0,30.5,21.434V55.822a2.1,2.1,0,0,0,1.052,1.824ZM6.717,11.132V66.124a2.518,2.518,0,0,0,2.517,2.513H85.767a2.515,2.515,0,0,0,2.512-2.513V11.132a2.514,2.514,0,0,0-2.512-2.513H9.234a2.518,2.518,0,0,0-2.517,2.513ZM9.234,72.858H85.767A6.742,6.742,0,0,0,92.5,66.124V11.132A6.738,6.738,0,0,0,85.767,4.4H9.234A6.738,6.738,0,0,0,2.5,11.132V66.124A6.742,6.742,0,0,0,9.234,72.858Z"/></svg>